:SAMPLES-PER-SECOND 30
:FULLY-SPECIFIED
:DEGREES
406
root  -16.4042 34.3849 4.50078 -63.2292 -71.5174 63.7186
RightUpLeg  -5.45522 -10.8917 -53.5371
RightLeg  13.0322 -23.2065 -8.16649
RightFoot  21.9577 -7.4824 25.1769
RightToes  -1.16417e-010 0 -3.6325e-017
Spine  19.6942 4.89479 30.6179
Spine1  -22.369 8.12951 -40.4746
HEad  0.813286 -20.8585 -13.3094
LeftShoulder1  -0.136561 4.84077 -1.79691
LeftArm  -18.6607 -14.8154 -13.9559
LeftForeArm  -18.3717 -45.8861 -12.7099
LeftHand  1.8194 10.0236 42.7447
RightShoulder  -0.00544436 -4.77591 -8.93439
RightArm  -50.464 1.96951 -13.3131
RightForeArm  -25.8684 48.1138 14.1569
RightHand  -0.876525 -1.60807 -26.5814
LeftUpLeg  -14.8335 25.5477 10.8657
LeftLeg  36.7297 -8.67458 -6.51525
LeftFoot  -8.39241 0.787928 -28.6386
LeftToes  6.91183e-011 3.39355e-011 2.1261e-011
407
root  -16.1751 33.5718 5.18343 -62.0504 -72.0526 63.249
RightUpLeg  -8.4935 -7.98666 -55.2865
RightLeg  17.9789 -23.8192 -8.30824
RightFoot  20.9726 -6.85973 23.8932
RightToes  -1.16417e-010 0 -3.6325e-017
Spine  20.4899 3.99409 29.1218
Spine1  -22.5268 7.23714 -40.4224
HEad  -3.51197 -20.9793 -11.3019
LeftShoulder1  -0.240558 5.93682 -1.57822
LeftArm  -29.8713 -11.1334 -14.4209
LeftForeArm  -20.228 -49.3003 -14.4222
LeftHand  2.31588 11.0276 44.547
RightShoulder  -0.0194019 -4.70764 -7.5901
RightArm  -44.455 -0.245669 -14.9183
RightForeArm  -13.4493 56.6301 18.4673
RightHand  -1.1434 -0.571728 -27.1905
LeftUpLeg  -19.1452 24.6719 10.0945
LeftLeg  43.6353 -7.15909 -6.84118
LeftFoot  -13.5567 -0.454649 -26.7292
LeftToes  6.91183e-011 3.39355e-011 2.1261e-011
408
root  -15.9202 32.7301 5.53651 -60.9874 -73.0625 62.5905
RightUpLeg  -11.971 -10.3342 -55.5136
RightLeg  22.8869 -19.2415 -8.86983
RightFoot  19.1181 -6.69588 24.7648
RightToes  -1.16417e-010 0 -3.6325e-017
Spine  21.1339 3.02977 26.5515
Spine1  -22.1613 6.25004 -39.0588
HEad  -7.3558 -20.3975 -9.32245
LeftShoulder1  -0.253425 6.04536 -1.68806
LeftArm  -40.6523 -8.41809 -16.5688
LeftForeArm  -22.0483 -54.1332 -17.2963
LeftHand  2.6358 11.577 46.0051
RightShoulder  -0.0299017 -4.69892 -6.60408
RightArm  -40.0819 -3.49915 -15.8127
RightForeArm  4.93291 65.9219 26.3376
RightHand  -1.48917 0.595867 -28.5293
LeftUpLeg  -23.0177 22.9663 10.4668
LeftLeg  49.9958 -5.59035 -6.64009
LeftFoot  -17.385 -1.33165 -26.7069
LeftToes  6.91183e-011 3.39355e-011 2.1261e-011
409
root  -15.7371 32.0222 5.56173 -62.4214 -74.5632 64.2518
RightUpLeg  -15.6652 -12.6786 -55.0632
RightLeg  27.3504 -14.8957 -8.41616
RightFoot  17.0088 -6.88109 27.2663
RightToes  -1.16417e-010 0 -3.6325e-017
Spine  21.7001 2.12744 23.1233
Spine1  -21.7145 5.16775 -37.424
HEad  -9.95754 -18.9568 -6.94149
LeftShoulder1  -0.249564 6.08235 -1.36451
LeftArm  -48.9321 -7.92224 -19.6951
LeftForeArm  -27.3841 -58.8991 -21.1669
LeftHand  2.75265 11.7732 46.4951
RightShoulder  -0.0425064 -4.71072 -5.46694
RightArm  -36.5103 -6.85377 -15.6314
RightForeArm  31.3009 74.6539 43.7662
RightHand  -1.52833 0.532864 -29.5544
LeftUpLeg  -25.4211 22.0048 11.9561
LeftLeg  54.3975 -4.37213 -6.03218
LeftFoot  -20.0547 -1.97461 -27.0113
LeftToes  6.91183e-011 3.39355e-011 2.1261e-011
410
root  -15.6135 31.5092 5.26605 -67.5654 -76.5958 69.27
RightUpLeg  -19.8849 -14.8742 -53.5982
RightLeg  31.7703 -10.1315 -6.91861
RightFoot  15.1132 -7.02863 29.7422
RightToes  -1.16417e-010 0 -3.6325e-017
Spine  22.4256 1.0824 18.9324
Spine1  -21.3994 3.76087 -35.3641
HEad  -12.3475 -16.1812 -3.99242
LeftShoulder1  -0.268363 6.58982 -0.269421
LeftArm  -55.2586 -9.26191 -23.2758
LeftForeArm  -34.1219 -62.453 -25.0793
LeftHand  2.7342 11.7742 46.2138
RightShoulder  -0.0516906 -4.57307 -3.96691
RightArm  -33.0152 -9.26638 -15.0339
RightForeArm  76.5231 79.5409 82.7187
RightHand  -1.2511 -0.621027 -29.9902
LeftUpLeg  -26.0251 21.8402 14.6512
LeftLeg  56.867 -3.53245 -5.27232
LeftFoot  -20.9532 -2.25912 -27.8443
LeftToes  6.91183e-011 3.39355e-011 2.1261e-011
